<mxfile host="app.diagrams.net" modified="2023-09-15T10:34:53.944Z" agent="Mozilla/5.0 (Windows NT 10.0; Win64; x64) AppleWebKit/537.36 (KHTML, like Gecko) Chrome/116.0.0.0 Safari/537.36" version="21.7.5" etag="H8xoo1vFj0LFJtGZGX6E" type="github">
  <diagram name="Страница — 1" id="tslWd22qhC8sRRLECi0I">
    <mxGraphModel>
      <root>
        <mxCell id="0" />
        <mxCell id="1" parent="0" />
      </root>
    </mxGraphModel>
  </diagram>
</mxfile>
